Coordinates
version=1
nRows=17
nColumns=38
inDegrees=yes

Units are S.I. units (second, meters, Newtons, ...)
If the header above contains a line with 'inDegrees', this indicates whether rotational values are in degrees (yes) or radians (no).

endheader
time	pelvis_tilt	pelvis_list	pelvis_rotation	pelvis_tx	pelvis_ty	pelvis_tz	hip_flexion_r	hip_adduction_r	hip_rotation_r	knee_angle_r	ankle_angle_r	subtalar_angle_r	mtp_angle_r	hip_flexion_l	hip_adduction_l	hip_rotation_l	knee_angle_l	ankle_angle_l	subtalar_angle_l	mtp_angle_l	lumbar_extension	lumbar_bending	lumbar_rotation	arm_flex_r	arm_add_r	arm_rot_r	elbow_flex_r	pro_sup_r	wrist_flex_r	wrist_dev_r	arm_flex_l	arm_add_l	arm_rot_l	elbow_flex_l	pro_sup_l	wrist_flex_l	wrist_dev_l
      1.16000000	     -6.51348112	      5.79276219	    -89.83135779	      0.22330267	      0.89259869	      0.15171582	    -11.49848068	     10.73686033	     -0.13443703	     -7.72400969	     12.73772757	      0.00000000	      0.00000000	     35.27907366	     -4.79357536	     -0.77649542	     -5.00735233	      0.61060163	      0.00000000	      0.00000000	      0.50503740	      5.61034201	      1.42695107	      5.46191807	    -15.03371339	     -1.89786010	     41.12711084	     86.16279751	      0.00000000	      0.00000000	     -6.39447114	    -11.11544653	     -7.69398252	     23.26511905	     84.56861286	      0.00000000	      0.00000000
      1.17000000	     -6.12369745	      5.85646312	    -89.83142169	      0.22476820	      0.89116764	      0.16658192	    -11.66750755	     10.16608726	     -0.22407643	     -9.08008443	     12.45127526	      0.00000000	      0.00000000	     35.51633602	     -4.31036549	     -1.15654334	     -6.43306268	     -0.36906384	      0.00000000	      0.00000000	      0.72734194	      5.13765488	      1.42174805	      5.36674914	    -14.88067437	     -2.04100915	     40.71854094	     86.15544320	      0.00000000	      0.00000000	     -6.38012824	    -11.09062827	     -7.86510134	     23.08467813	     84.54688915	      0.00000000	      0.00000000
      1.18000000	     -5.76527273	      5.95347284	    -89.83138048	      0.22625617	      0.88996571	      0.18146424	    -11.60569265	      9.62249254	     -0.31155689	    -10.74799248	     11.90375182	      0.00000000	      0.00000000	     35.78920804	     -3.86709441	     -1.33194510	     -8.04840128	     -1.45591145	      0.00000000	      0.00000000	      1.00222652	      4.69511632	      1.38538261	      5.34256765	    -14.57914647	     -2.47453085	     40.01776992	     86.17759404	      0.00000000	      0.00000000	     -6.29330682	    -10.98586494	     -8.32127681	     22.78597709	     84.53396680	      0.00000000	      0.00000000
      1.19000000	     -5.42494124	      5.82240231	    -89.83262751	      0.22780634	      0.88936718	      0.19649080	    -11.64114990	      9.10720406	     -0.26578018	    -12.64180290	     11.18468980	      0.00000000	      0.00000000	     35.81147468	     -3.44459217	     -1.33932209	     -9.82794448	     -2.31904985	      0.00000000	      0.00000000	      0.99002311	      4.28432727	      1.37180068	      5.11583760	    -14.48867108	     -2.49588445	     39.76610699	     86.18571094	      0.00000000	      0.00000000	     -6.24326325	    -10.96614613	     -8.37624506	     22.74173763	     84.53770283	      0.00000000	      0.00000000
      1.20000000	     -5.02037943	      5.82355170	    -89.82938054	      0.22950988	      0.88887612	      0.21159236	    -11.23245994	      8.44358395	     -0.79684209	    -15.00734495	      9.82789983	      0.00000000	      0.00000000	     35.89556656	     -2.97945316	     -1.63148580	    -11.55044420	     -3.68222939	      0.00000000	      0.00000000	      1.18184872	      3.82026011	      1.33652968	      4.88362286	    -14.33547390	     -2.59931218	     39.23916886	     86.19016825	      0.00000000	      0.00000000	     -6.16670544	    -10.91983934	     -8.46552384	     22.60419560	     84.54441948	      0.00000000	      0.00000000
      1.21000000	     -4.68112165	      5.76050469	    -89.83305045	      0.23119430	      0.88878196	      0.22663322	    -10.70272785	      7.86065860	     -1.10810726	    -17.64170803	      8.30494121	      0.00000000	      0.00000000	     35.89307428	     -2.56591570	     -1.58618093	    -13.33181136	     -4.75753987	      0.00000000	      0.00000000	      1.26449353	      3.42976843	      1.27014705	      4.69419546	    -14.15070999	     -2.72061451	     38.68199624	     86.19555767	      0.00000000	      0.00000000	     -6.05265467	    -10.86077999	     -8.54579711	     22.47081973	     84.55346405	      0.00000000	      0.00000000
      1.22000000	     -4.35062877	      5.69800125	    -89.83409371	      0.23295180	      0.88899753	      0.24166261	     -9.93031818	      7.25940161	     -1.46811287	    -20.62241096	      6.43059464	      0.00000000	      0.00000000	     35.82431330	     -2.15357860	     -1.53689331	    -15.04281144	     -5.70243094	      0.00000000	      0.00000000	      1.36241351	      3.06285728	      1.18906523	      4.48092958	    -13.94564559	     -2.86155632	     38.05171774	     86.20548772	      0.00000000	      0.00000000	     -5.90507034	    -10.78162362	     -8.62583943	     22.34002540	     84.56684602	      0.00000000	      0.00000000
      1.23000000	     -4.03148609	      5.65267020	    -89.83128772	      0.23474140	      0.88948604	      0.25657591	     -8.89476594	      6.65733156	     -1.80008422	    -23.93208172	      4.27894875	      0.00000000	      0.00000000	     35.70884690	     -1.74582787	     -1.44883701	    -16.65732952	     -6.45702909	      0.00000000	      0.00000000	      1.46291942	      2.70486951	      1.06139479	      4.27397398	    -13.72537818	     -3.03942525	     37.36110449	     86.22368437	      0.00000000	      0.00000000	     -5.72736859	    -10.69825244	     -8.71738662	     22.20375839	     84.58850822	      0.00000000	      0.00000000
      1.24000000	     -3.74492930	      5.52438087	    -89.83077492	      0.23657469	      0.89035350	      0.27135147	     -7.70181909	      6.04721270	     -2.21481970	    -27.55049038	      1.97782754	      0.00000000	      0.00000000	     35.42794949	     -1.36727986	     -1.39691266	    -18.15015096	     -6.96441891	      0.00000000	      0.00000000	      1.43957000	      2.40709604	      0.95574270	      4.02879362	    -13.54647180	     -3.16277611	     36.74031934	     86.24223170	      0.00000000	      0.00000000	     -5.51484429	    -10.60466371	     -8.77647724	     22.13706776	     84.61033302	      0.00000000	      0.00000000
      1.25000000	     -3.41883726	      5.44534719	    -89.83403850	      0.23843548	      0.89143543	      0.28590152	     -6.24007171	      5.38234527	     -2.57284954	    -31.40345632	     -0.47352285	      0.00000000	      0.00000000	     35.10552675	     -0.94969612	     -1.36777719	    -19.46062403	     -7.26258450	      0.00000000	      0.00000000	      1.45760217	      2.07086197	      0.81658411	      3.80085239	    -13.35617997	     -3.27616424	     36.10112300	     86.26206710	      0.00000000	      0.00000000	     -5.26355603	    -10.51853034	     -8.82380519	     22.08830901	     84.63686742	      0.00000000	      0.00000000
      1.26000000	     -3.09678555	      5.34303781	    -89.83379667	      0.24035200	      0.89273782	      0.30025294	     -4.61448056	      4.68046531	     -2.97975439	    -35.42504526	     -2.87781289	      0.00000000	      0.00000000	     34.68156081	     -0.52537297	     -1.36130454	    -20.64609811	     -7.34291115	      0.00000000	      0.00000000	      1.40804668	      1.74777442	      0.66200760	      3.55202779	    -13.19133781	     -3.35738017	     35.48980004	     86.28005843	      0.00000000	      0.00000000	     -4.98565394	    -10.43881588	     -8.84972621	     22.08159035	     84.66301960	      0.00000000	      0.00000000
      1.27000000	     -2.70932136	      5.38856670	    -89.83878229	      0.24225376	      0.89407529	      0.31430200	     -2.65214632	      3.93400088	     -3.21856326	    -39.57489082	     -5.21715748	      0.00000000	      0.00000000	     34.27759810	     -0.03169853	     -1.40453089	    -21.54927282	     -7.22050196	      0.00000000	      0.00000000	      1.52694940	      1.36513249	      0.45176801	      3.33954686	    -12.97146756	     -3.45230077	     34.80920755	     86.30436090	      0.00000000	      0.00000000	     -4.69871704	    -10.35884227	     -8.86916760	     22.07146883	     84.70220853	      0.00000000	      0.00000000
      1.28000000	     -2.34173877	      5.35311876	    -89.83688581	      0.24417138	      0.89569570	      0.32815396	     -0.68820660	      3.18383873	     -3.47595671	    -43.65723589	     -7.25071830	      0.00000000	      0.00000000	     33.72832200	      0.44403276	     -1.49203020	    -22.35896942	     -6.92717097	      0.00000000	      0.00000000	      1.51222924	      1.00471131	      0.25093440	      3.08136155	    -12.80559373	     -3.50659812	     34.20513735	     86.32595227	      0.00000000	      0.00000000	     -4.35223008	    -10.28435183	     -8.86795330	     22.14222340	     84.73690307	      0.00000000	      0.00000000
      1.29000000	     -1.97700841	      5.32997709	    -89.83675542	      0.24606199	      0.89746250	      0.34170332	      1.36949363	      2.46472077	     -3.61861075	    -47.61818087	     -8.92345440	      0.00000000	      0.00000000	     33.08507518	      0.92108834	     -1.58456657	    -22.94932305	     -6.52669825	      0.00000000	      0.00000000	      1.46889518	      0.66240684	      0.02043383	      2.84637418	    -12.64052184	     -3.53818029	     33.64665172	     86.34574193	      0.00000000	      0.00000000	     -3.98293929	    -10.22945485	     -8.85046275	     22.24594523	     84.77197397	      0.00000000	      0.00000000
      1.30000000	     -1.58403432	      5.63749061	    -89.83812935	      0.24789618	      0.89889545	      0.35487211	      3.89865538	      1.71776363	     -3.73366109	    -51.50277069	    -10.18120443	      0.00000000	      0.00000000	     32.66947725	      1.43983604	     -1.65862490	    -23.28862612	     -6.05731249	      0.00000000	      0.00000000	      1.80862651	      0.29028289	     -0.29887287	      2.73364732	    -12.43190754	     -3.65681867	     32.86444545	     86.38672119	      0.00000000	      0.00000000	     -3.66914229	    -10.21064382	     -8.79235580	     22.35810584	     84.85389738	      0.00000000	      0.00000000
      1.31000000	     -1.18180088	      5.68859964	    -89.83842672	      0.24970816	      0.90085998	      0.36791641	      6.14459083	      0.97596870	     -3.79505674	    -55.05839038	    -11.20855782	      0.00000000	      0.00000000	     31.88029631	      1.96827939	     -1.75818537	    -23.44823224	     -5.46943267	      0.00000000	      0.00000000	      1.80767268	     -0.09426910	     -0.59650722	      2.50884165	    -12.19549894	     -3.67385963	     32.34567893	     86.41951964	      0.00000000	      0.00000000	     -3.26916592	    -10.18871961	     -8.71383915	     22.53899757	     84.91075028	      0.00000000	      0.00000000
      1.32000000	     -0.83132572	      5.64181530	    -89.83790113	      0.25151439	      0.90314040	      0.38082876	      8.24399007	      0.31198658	     -3.81161282	    -58.18574128	    -11.94730516	      0.00000000	      0.00000000	     30.90632790	      2.43226313	     -1.93895313	    -23.45900764	     -4.82930978	      0.00000000	      0.00000000	      1.67284870	     -0.39568846	     -0.83619570	      2.22102229	    -12.11410002	     -3.66258576	     31.89979412	     86.43563803	      0.00000000	      0.00000000	     -2.79120144	    -10.15688761	     -8.65092283	     22.77049947	     84.94165889	      0.00000000	      0.00000000
